<svg xmlns="http://www.w3.org/2000/svg" width="23.73" height="22.555" viewBox="0 0 23.73 22.555"><defs><style>.a{fill:#1a1a1a;}</style></defs><g transform="translate(0 0)"><path class="a" d="M23.332,22.7l-2-1.827V14.813a.7.7,0,0,0-.7-.7H15.8a.7.7,0,0,0-.7.7V15.2l-2.421-2.206a1.211,1.211,0,0,0-1.639,0L.4,22.7a1.217,1.217,0,0,0,.82,2.116h1.7v9.72a.7.7,0,0,0,.7.7H9.453a.7.7,0,0,0,.7-.7v-5.9h3.43v5.9a.7.7,0,0,0,.7.7h5.836a.7.7,0,0,0,.7-.7v-9.72h1.7a1.217,1.217,0,0,0,.82-2.116Zm-3.218.721a.7.7,0,0,0-.7.7v9.72h-4.44v-5.9a.7.7,0,0,0-.7-.7H9.453a.7.7,0,0,0-.7.7v5.9H4.314v-9.72a.7.7,0,0,0-.7-.7H1.68l10.185-9.281L15.334,17.3a.7.7,0,0,0,1.168-.516v-1.27h3.43v5.667a.7.7,0,0,0,.228.516l1.891,1.723Z" transform="translate(0 -12.676)"/></g></svg>