<svg xmlns="http://www.w3.org/2000/svg" width="25.352" height="22.777" viewBox="0 0 25.352 22.777"><defs><style>.a{fill:#1a1a1a;}</style></defs><path class="a" d="M246.5,100a.5.5,0,1,0,.5.5A.5.5,0,0,0,246.5,100Zm0,0" transform="translate(-233.819 -95.048)"/><path class="a" d="M80.5,260.99a.5.5,0,1,0-.5-.5A.5.5,0,0,0,80.5,260.99Zm0,0" transform="translate(-76.039 -247.126)"/><path class="a" d="M16.637,0c-4.458,0-8.117,3.073-8.4,6.945C3.992,7.158,0,10.219,0,14.36A6.919,6.919,0,0,0,1.931,19.1a3.011,3.011,0,0,1-.8,2.837.5.5,0,0,0,.35.845,5.462,5.462,0,0,0,3.784-1.53,11.284,11.284,0,0,0,3.445.539c4.457,0,8.116-3.073,8.4-6.943a11.134,11.134,0,0,0,2.968-.528,5.462,5.462,0,0,0,3.784,1.53.5.5,0,0,0,.35-.845,3.011,3.011,0,0,1-.8-2.837,6.919,6.919,0,0,0,1.931-4.735C25.352,3.125,21.052,0,16.637,0ZM8.715,20.8a10.01,10.01,0,0,1-3.392-.584.5.5,0,0,0-.549.126,4.468,4.468,0,0,1-2.222,1.319,4,4,0,0,0,.3-2.947.494.494,0,0,0-.121-.209A5.95,5.95,0,0,1,.99,14.36c0-3.489,3.537-6.437,7.725-6.437,3.954,0,7.427,2.75,7.427,6.437C16.142,17.909,12.81,20.8,8.715,20.8Zm13.9-9.229a.5.5,0,0,0-.121.209,4,4,0,0,0,.3,2.947,4.466,4.466,0,0,1-2.222-1.319.5.5,0,0,0-.549-.126,9.754,9.754,0,0,1-2.917.572,7.088,7.088,0,0,0-2.676-4.939H20.9a.5.5,0,0,0,0-.99h-7.98a9.235,9.235,0,0,0-3.685-.976C9.515,3.621,12.729.99,16.637.99c4.187,0,7.725,2.948,7.725,6.437A5.95,5.95,0,0,1,22.62,11.568Zm0,0"/><path class="a" d="M126.734,260H120.5a.5.5,0,0,0,0,.99h6.239a.5.5,0,0,0,0-.99Zm0,0" transform="translate(-114.058 -247.126)"/><path class="a" d="M88.715,320H80.5a.5.5,0,1,0,0,.99h8.22a.5.5,0,1,0,0-.99Zm0,0" transform="translate(-76.039 -304.155)"/><path class="a" d="M292.734,100H286.5a.5.5,0,0,0,0,.99h6.239a.5.5,0,1,0,0-.99Zm0,0" transform="translate(-271.838 -95.048)"/></svg>