<svg xmlns="http://www.w3.org/2000/svg" width="21" height="18.684" viewBox="0 0 21 18.684"><defs><style>.a{fill:#1a1a1a;}</style></defs><path class="a" d="M10.5,18.684a1.231,1.231,0,0,1-.812-.305C8.84,17.637,8.022,16.94,7.3,16.325l0,0a44.412,44.412,0,0,1-5.214-4.894A7.816,7.816,0,0,1,0,6.311,6.564,6.564,0,0,1,1.666,1.828,5.647,5.647,0,0,1,5.867,0a5.282,5.282,0,0,1,3.3,1.139A6.751,6.751,0,0,1,10.5,2.532a6.751,6.751,0,0,1,1.334-1.393A5.282,5.282,0,0,1,15.134,0a5.647,5.647,0,0,1,4.2,1.828A6.564,6.564,0,0,1,21,6.311a7.816,7.816,0,0,1-2.083,5.116A44.4,44.4,0,0,1,13.7,16.321c-.723.616-1.542,1.314-2.392,2.058A1.232,1.232,0,0,1,10.5,18.684ZM5.867,1.23a4.43,4.43,0,0,0-3.3,1.432A5.339,5.339,0,0,0,1.23,6.311a6.577,6.577,0,0,0,1.8,4.332,43.7,43.7,0,0,0,5.065,4.743l0,0c.724.617,1.545,1.317,2.4,2.064.86-.749,1.682-1.45,2.408-2.068a43.711,43.711,0,0,0,5.064-4.742,6.577,6.577,0,0,0,1.8-4.332,5.339,5.339,0,0,0-1.34-3.649,4.43,4.43,0,0,0-3.3-1.432,4.08,4.08,0,0,0-2.547.882,5.969,5.969,0,0,0-1.42,1.643.777.777,0,0,1-1.334,0,5.964,5.964,0,0,0-1.42-1.643A4.08,4.08,0,0,0,5.867,1.23Zm0,0"/></svg>